<?xml version="1.0" standalone="no"?><!DOCTYPE svg PUBLIC "-//W3C//DTD SVG 1.1//EN" "http://www.w3.org/Graphics/SVG/1.1/DTD/svg11.dtd"><svg t="1731064879189" class="icon" viewBox="0 0 1024 1024" version="1.1" xmlns="http://www.w3.org/2000/svg" p-id="9746" xmlns:xlink="http://www.w3.org/1999/xlink" width="200" height="200"><path d="M799 755.7H269.7c-9.9 0-18 8.1-18 18 0 23.3 19.1 42.4 42.4 42.4h480.3c23.3 0 42.4-19.1 42.4-42.4 0.1-9.9-8-18-17.8-18z" fill="#E2E2E2" p-id="9747"></path><path d="M403.4 603.2c-7.1-7.1-7.1-18.5 0-25.6l257.9-257.9c7.1-7.1 18.5-7.1 25.6 0 7.1 7.1 7.1 18.5 0 25.6L429 603.2c-7.1 7.1-18.5 7.1-25.6 0z" fill="#FFA4B3" p-id="9748"></path><path d="M416.2 619.2c-7.4 0-14.7-2.8-20.3-8.4-11.2-11.2-11.2-29.4 0-40.6l257.9-257.9c5.4-5.4 12.6-8.4 20.3-8.4 7.7 0 14.9 3 20.3 8.4s8.4 12.6 8.4 20.3c0 7.7-3 14.9-8.4 20.3L436.5 610.8c-5.6 5.6-12.9 8.4-20.3 8.4z m-5.3-23.5c2.9 2.9 7.6 2.9 10.5 0l257.9-257.9c1.4-1.4 2.2-3.3 2.2-5.3s-0.8-3.9-2.2-5.3c-2.8-2.8-7.7-2.8-10.5 0l-257.9 258c-2.9 2.9-2.9 7.6 0 10.5z" fill="#333333" p-id="9749"></path><path d="M430.3 597.5c-9.3-3.7-13.8-14.2-10.1-23.5L555 235.1c3.7-9.3 14.2-13.8 23.5-10.1 9.3 3.7 13.8 14.2 10.1 23.5L453.8 587.3c-3.7 9.3-14.2 13.9-23.5 10.2z" fill="#FFA4B3" p-id="9750"></path><path d="M437 609.4c-3.5 0-7.1-0.7-10.6-2-14.7-5.9-21.9-22.6-16.1-37.3L545 231.2c2.8-7.1 8.3-12.7 15.3-15.8 7-3 14.9-3.2 22-0.3 7.1 2.8 12.7 8.3 15.8 15.3 3 7 3.2 14.9 0.3 22L463.7 591.3c-4.4 11.2-15.3 18.1-26.7 18.1z m134.8-375c-1 0-2 0.2-2.9 0.6-1.8 0.8-3.2 2.2-4 4.1L430.1 577.9c-0.7 1.8-0.7 3.9 0.1 5.7 0.8 1.8 2.2 3.2 4.1 4 3.8 1.5 8.1-0.4 9.7-4.2l134.7-338.9c0.7-1.8 0.7-3.9-0.1-5.7-0.8-1.8-2.2-3.2-4.1-4-0.9-0.3-1.8-0.4-2.7-0.4z" fill="#333333" p-id="9751"></path><path d="M580.9 315.9c-27.5 71.6-99.9 50.4-99.9 50.4s29.1-70.9 99.9-50.4z" fill="#97CE4B" p-id="9752"></path><path d="M504.7 380.2c-10.2 0-19.5-1.5-26.7-3.6-2.9-0.9-5.3-2.9-6.6-5.6-1.3-2.7-1.4-5.9-0.3-8.7 11.3-27.6 49.5-74.9 112.7-56.6 2.9 0.8 5.2 2.8 6.6 5.5 1.3 2.7 1.5 5.8 0.4 8.6-18.3 47.6-56.2 60.4-86.1 60.4z m-7.4-21.8c18 1.6 49.8-1.1 68.4-34.8-36.8-5-58.5 19.3-68.4 34.8z" fill="#333333" p-id="9753"></path><path d="M545.8 371.9l-38-65.8c-5.6-9.7-13.7-16.3-22.8-20.1-9.1 3.8-17.2 10.5-22.8 20.1l-56.4 97.6c-10.2 17.6 2.5 39.6 22.9 39.6h75.9c36.6 0 59.5-39.7 41.2-71.4z" fill="#DB3A60" p-id="9754"></path><path d="M545.8 371.9l-38-65.8c-5.6-9.7-13.7-16.3-22.8-20.1-4.7 1.9-9.1 4.7-13.1 8.2 3.7 3.3 7 7.2 9.7 11.9l38 65.8c18.3 31.7-4.6 71.4-41.2 71.4h26.1c36.7 0 59.6-39.7 41.3-71.4z" fill="#AD234A" p-id="9755"></path><path d="M756.1 711.4V547.9c0-57.8-43.9-104.6-98-104.6H343c-22.9 0-41.5 19.8-41.5 44.3v223.9c0 24.5 18.6 44.3 41.5 44.3h371.6c22.9-0.1 41.5-19.9 41.5-44.4z" fill="#FCE5D6" p-id="9756"></path><path d="M658.1 443.3H609c54.1 0 98 46.8 98 104.6v163.5c0 24.5-18.6 44.3-41.5 44.3h49.1c22.9 0 41.5-19.8 41.5-44.3V547.9c0-57.8-43.9-104.6-98-104.6z" fill="#E2B9A3" p-id="9757"></path><path d="M248.3 564.1v17.7c0 6.4 5.6 11.3 12 10.4h0.2c5.2-0.7 9.1-5.2 9.1-10.4v-17.7c0-5.8-4.7-10.5-10.5-10.5h-0.2c-5.9-0.1-10.6 4.7-10.6 10.5zM462.6 432.6H300.4c-28.8 0-52.1 23.3-52.1 52.1V530c0 5.7 4.6 10.4 10.3 10.5h0.2c5.9 0.1 10.7-4.6 10.7-10.5v-45.2c0-17 13.8-30.8 30.8-30.8h162.1c5.9 0 10.7-4.8 10.7-10.7 0.1-5.9-4.6-10.7-10.5-10.7zM636 432.6H506c-5.5 0-10.6 3.7-11.4 9.1-0.9 6.6 4.2 12.2 10.5 12.2H636c5.9 0 10.6-4.8 10.5-10.7v-0.2c-0.1-5.7-4.8-10.4-10.5-10.4zM667.8 445.5v0.2c0.1 4.9 3.6 9.1 8.4 10.2 39.5 8.4 69.2 43.4 69.2 85.4V714c0 17.2-13.9 31.1-31.1 31.1h-24.6c-5.5 0-10.6 3.7-11.4 9.1-0.9 6.6 4.2 12.2 10.5 12.2h25.4c29 0 52.4-23.5 52.4-52.4V541.2c0-52.2-36.9-95.8-86-106.2-6.5-1.4-12.9 3.7-12.8 10.5zM596.6 754.4v-0.2c-0.7-5.2-5.2-9.1-10.4-9.1H300.4c-17 0-30.8-13.8-30.8-30.8V616c0-5.7-4.5-10.3-10.1-10.5h-0.2c-6-0.2-10.9 4.6-10.9 10.6v98.2c0 28.8 23.3 52.1 52.1 52.1h285.7c6.3 0 11.3-5.7 10.4-12z" fill="#333333" p-id="9758"></path><path d="M653.8 548.2H303c-0.5 0-0.8-0.4-0.8-0.8v-49.8c0-0.5 0.4-0.8 0.8-0.8h350.8c2.7 0 4.8 2.2 4.8 4.8v41.8c0 2.6-2.1 4.8-4.8 4.8zM653.8 719.4H303c-0.5 0-0.8-0.4-0.8-0.8v-49.8c0-0.5 0.4-0.8 0.8-0.8h350.8c2.7 0 4.8 2.2 4.8 4.8v41.8c0 2.6-2.1 4.8-4.8 4.8z" fill="#FFA4B3" p-id="9759"></path><path d="M546.4 583.7m-14 0a14 14 0 1 0 28 0 14 14 0 1 0-28 0Z" fill="#333333" p-id="9760"></path><path d="M428.2 583.7m-14 0a14 14 0 1 0 28 0 14 14 0 1 0-28 0Z" fill="#333333" p-id="9761"></path><path d="M487.3 645.9c-16.3 0-29.5-13.2-29.5-29.5v-0.8c0.3-4 3.8-7.1 7.8-7 4 0.2 7.2 3.4 7.1 7.5v0.7c0 7.7 6.6 14.3 14.6 14.3s14.6-6.5 14.6-14.6c0-4.1 3.3-7.5 7.5-7.5s7.5 3.3 7.5 7.5c-0.1 16.1-13.3 29.4-29.6 29.4z" fill="#333333" p-id="9762"></path><path d="M569.2 620m-18 0a18 18 0 1 0 36 0 18 18 0 1 0-36 0Z" fill="#F97893" p-id="9763"></path><path d="M407.4 621.7m-18 0a18 18 0 1 0 36 0 18 18 0 1 0-36 0Z" fill="#F97893" p-id="9764"></path><path d="M555 366.5l-38-65.8c-10.4-18-29.6-29.1-50.4-29.1-20.8 0-40 11.1-50.4 29.1l-55.6 96.4c-6.8 11.9-7.5 26.7-0.6 38.5 6.7 11.5 18.7 18.4 32 18.4h70.7c5.9 0 10.7-4.8 10.7-10.7 0-5.9-4.8-10.7-10.7-10.7h-70c-5.1 0-10.1-2.1-13.1-6.1-4-5.2-4.4-12-1.2-17.5l55.6-96.4c6.8-11.8 19.3-19.8 32.9-19.7 13.3 0.1 25.2 7 31.8 18.5L536 376c6.8 11.8 7.5 26.6 0.6 38.3-6.7 11.5-18.6 18.3-31.9 18.3-5.6 0-10.1 4.5-10.1 10.1v2.9c0 4.6 3.8 8.4 8.4 8.4 19 0 37.5-8.4 48.6-23.8 13.9-19.2 15-43.6 3.4-63.7z" fill="#333333" p-id="9765"></path><path d="M481 332m-8.8 0a8.8 8.8 0 1 0 17.6 0 8.8 8.8 0 1 0-17.6 0Z" fill="#FFA4B3" p-id="9766"></path><path d="M488.3 359.8m-8.8 0a8.8 8.8 0 1 0 17.6 0 8.8 8.8 0 1 0-17.6 0Z" fill="#FFA4B3" p-id="9767"></path><path d="M459.9 354.7m-8.8 0a8.8 8.8 0 1 0 17.6 0 8.8 8.8 0 1 0-17.6 0Z" fill="#FFA4B3" p-id="9768"></path><path d="M332.2 482c1-0.3 2-0.4 3-0.4 5.9 0 10.7 4.8 10.7 10.6l0.1 72.2c0 5.9-4.8 10.7-10.6 10.7-5.9 0-10.7-4.8-10.7-10.6l-0.1-72.2c-0.1-4.9 3.2-9 7.6-10.3z" fill="#FFFFFF" p-id="9769"></path><path d="M324.406027 602.343781a10.7 10.7 0 1 0 19.44613-8.933532 10.7 10.7 0 1 0-19.44613 8.933532Z" fill="#FFFFFF" p-id="9770"></path><path d="M795.9 755.7h-37c9.9 0 18 8.1 18 18 0 23.3-19.1 42.4-42.4 42.4h37c23.3 0 42.4-19.1 42.4-42.4-0.1-9.9-8.2-18-18-18z" fill="#C3C3C3" p-id="9771"></path><path d="M312.3 805.4h-67.2c-17.4 0-31.6-14.1-31.8-31.5 0-4.1 3.2-7.5 7.3-7.5h397.9c5.8 0 10.5-4.7 10.5-10.4v-0.2c0.1-5.9-4.7-10.7-10.5-10.7H220.7c-15.6 0-28.5 12.5-28.6 28.2-0.3 29.5 23.6 53.5 53.1 53.5h67.2c5.8 0 10.5-4.7 10.6-10.5v-0.1c0-5.9-4.8-10.8-10.7-10.8zM803.5 745.1H660.8c-5.7 0-10.4 4.6-10.6 10.3v0.2c-0.1 5.9 4.7 10.8 10.6 10.8h142.8c4.1 0 7.3 3.4 7.3 7.5-0.1 17.4-14.3 31.5-31.8 31.5H608.8c-5.9 0-10.7 4.8-10.7 10.7 0 5.9 4.8 10.7 10.7 10.7h170.3c29.4 0 53.3-24.1 53.1-53.5-0.2-15.7-13-28.2-28.7-28.2z" fill="#333333" p-id="9772"></path><path d="M566.2 805.4H354.7c-5.8 0-10.4 4.6-10.5 10.4v0.3c-0.1 5.8 4.7 10.6 10.5 10.6h211.5c5.9 0 10.7-4.8 10.7-10.7 0-5.8-4.8-10.6-10.7-10.6z" fill="#333333" p-id="9773"></path><path d="M782.1 255.2h-9.4c-3.1 0-5.7-2.5-5.7-5.7v-9.4c0-3-1.8-5.9-4.6-6.9-4.8-1.6-9.2 2-9.2 6.6v9.7c0 3.1-2.5 5.7-5.7 5.7h-9.4c-3 0-5.9 1.8-6.9 4.6-1.6 4.8 2 9.2 6.6 9.2h9.7c3.1 0 5.7 2.5 5.7 5.7v9.4c0 3 1.8 5.9 4.6 6.9 4.8 1.6 9.2-2 9.2-6.6v-9.7c0-3.1 2.5-5.7 5.7-5.7h9.7c4.6 0 8.1-4.5 6.6-9.2-1-2.9-3.9-4.6-6.9-4.6z" fill="#333333" p-id="9774"></path><path d="M832.2 383.8m-8.4 0a8.4 8.4 0 1 0 16.8 0 8.4 8.4 0 1 0-16.8 0Z" fill="#333333" p-id="9775"></path><path d="M292.4 407.7m-5.9 0a5.9 5.9 0 1 0 11.8 0 5.9 5.9 0 1 0-11.8 0Z" fill="#333333" p-id="9776"></path><path d="M876.9 246.3m-9.8 0a9.8 9.8 0 1 0 19.6 0 9.8 9.8 0 1 0-19.6 0Z" fill="#333333" p-id="9777"></path><path d="M869.6 149.8h-9.4c-3.1 0-5.7-2.5-5.7-5.7v-9.4c0-3-1.8-5.9-4.6-6.9-4.8-1.6-9.2 2-9.2 6.6v9.7c0 3.1-2.5 5.7-5.7 5.7h-9.4c-3 0-5.9 1.8-6.9 4.6-1.6 4.8 2 9.2 6.6 9.2h9.7c3.1 0 5.7 2.5 5.7 5.7v9.4c0 3 1.8 5.9 4.6 6.9 4.8 1.6 9.2-2 9.2-6.6v-9.7c0-3.1 2.5-5.7 5.7-5.7h9.7c4.6 0 8.1-4.5 6.6-9.2-1-2.8-3.9-4.6-6.9-4.6z" fill="#333333" p-id="9778"></path><path d="M717.6 134.4m-8.4 0a8.4 8.4 0 1 0 16.8 0 8.4 8.4 0 1 0-16.8 0Z" fill="#333333" p-id="9779"></path><path d="M239.5 224.6m-9.8 0a9.8 9.8 0 1 0 19.6 0 9.8 9.8 0 1 0-19.6 0Z" fill="#333333" p-id="9780"></path><path d="M137.1 349.1m-12.7 0a12.7 12.7 0 1 0 25.4 0 12.7 12.7 0 1 0-25.4 0Z" fill="#333333" p-id="9781"></path><path d="M175.5 390.9m-5.9 0a5.9 5.9 0 1 0 11.8 0 5.9 5.9 0 1 0-11.8 0Z" fill="#333333" p-id="9782"></path><path d="M261.5 329.5h-9.4c-3.1 0-5.7-2.5-5.7-5.7v-9.4c0-3-1.8-5.9-4.6-6.9-4.8-1.6-9.2 2-9.2 6.6v9.7c0 3.1-2.5 5.7-5.7 5.7h-9.4c-3 0-5.9 1.8-6.9 4.6-1.6 4.8 2 9.2 6.6 9.2h9.7c3.1 0 5.7 2.5 5.7 5.7v9.4c0 3 1.8 5.9 4.6 6.9 4.8 1.6 9.2-2 9.2-6.6V349c0-3.1 2.5-5.7 5.7-5.7h9.7c4.6 0 8.1-4.5 6.6-9.2-0.9-2.9-3.9-4.6-6.9-4.6z" fill="#333333" p-id="9783"></path><path d="M384.7 179.1h-0.6c-1.4 0-2.6-1.2-2.6-2.6v-16.2c0-1.4 1.2-2.6 2.6-2.6h0.6c1.4 0 2.6 1.2 2.6 2.6v16.2c0.1 1.4-1.1 2.6-2.6 2.6zM374.8 182.5l-0.2 0.2c-1.1 1-2.8 1-3.9 0l-12.1-11.5c-1.1-1-1.1-2.7 0-3.7l0.2-0.2c1.1-1 2.8-1 3.9 0l12.1 11.5c1.1 1 1.1 2.7 0 3.7zM370.5 191.4v0.3c0 1.4-1.2 2.6-2.6 2.6h-17.4c-1.4 0-2.6-1.2-2.6-2.6v-0.3c0-1.4 1.2-2.6 2.6-2.6h17.4c1.4 0 2.6 1.2 2.6 2.6zM374.1 200.7l0.2 0.2c1.1 1 1.1 2.7 0 3.7l-12.1 11.5c-1.1 1-2.8 1-3.9 0l-0.2-0.2c-1.1-1-1.1-2.7 0-3.7l12.1-11.5c1.1-1 2.8-1 3.9 0zM383.4 204.8h0.6c1.4 0 2.6 1.2 2.6 2.6v16.2c0 1.4-1.2 2.6-2.6 2.6h-0.6c-1.4 0-2.6-1.2-2.6-2.6v-16.2c0-1.4 1.2-2.6 2.6-2.6zM393.3 201.4l0.2-0.2c1.1-1 2.8-1 3.9 0l12.1 11.5c1.1 1 1.1 2.7 0 3.7l-0.2 0.2c-1.1 1-2.8 1-3.9 0l-12.1-11.5c-1-1-1-2.7 0-3.7zM397.7 192.4v-0.3c0-1.4 1.2-2.6 2.6-2.6h17.4c1.4 0 2.6 1.2 2.6 2.6v0.3c0 1.4-1.2 2.6-2.6 2.6h-17.4c-1.5 0-2.6-1.1-2.6-2.6zM394.1 183.2l-0.2-0.2c-1.1-1-1.1-2.7 0-3.7l12.1-11.5c1.1-1 2.8-1 3.9 0l0.2 0.2c1.1 1 1.1 2.7 0 3.7L398 183.2c-1.1 1-2.9 1-3.9 0z" fill="#333333" p-id="9784"></path></svg>